<svg version="1.2" xmlns="http://www.w3.org/2000/svg" viewBox="0 0 1000 1000" width="1000" height="1000">
	<title>image</title>
	<style>
		.s0 { fill: none;stroke: #ffffff;stroke-width: 2 } 
	</style>
	<g>
		<path fill-rule="evenodd" class="s0" d="m133 106c-17.1 0-31-13.9-31-31 0-17.1 13.9-31 31-31 17.1 0 31 13.9 31 31 0 17.1-13.9 31-31 31z"/>
		<path fill-rule="evenodd" class="s0" d="m500 162c-34.3 0-62-27.7-62-62 0-34.3 27.7-62 62-62 34.3 0 62 27.7 62 62 0 34.3-27.7 62-62 62z"/>
		<path fill-rule="evenodd" class="s0" d="m900 188c-21 0-38-17-38-38 0-21 17-38 38-38 21 0 38 17 38 38 0 21-17 38-38 38z"/>
		<path fill-rule="evenodd" class="s0" d="m367 525c-69.1 0-125-55.9-125-125 0-69.1 55.9-125 125-125 69.1 0 125 55.9 125 125 0 69.1-55.9 125-125 125z"/>
		<path fill-rule="evenodd" class="s0" d="m750 625c-55.3 0-100-44.7-100-100 0-55.3 44.7-100 100-100 55.3 0 100 44.7 100 100 0 55.3-44.7 100-100 100z"/>
		<path fill-rule="evenodd" class="s0" d="m233 825c-41.5 0-75-33.5-75-75 0-41.5 33.5-75 75-75 41.5 0 75 33.5 75 75 0 41.5-33.5 75-75 75z"/>
		<path fill-rule="evenodd" class="s0" d="m833 1012c-61.9 0-112-50.1-112-112 0-61.9 50.1-112 112-112 61.9 0 112 50.1 112 112 0 61.9-50.1 112-112 112z"/>
	</g>
</svg>