<svg version="1.2" xmlns="http://www.w3.org/2000/svg" viewBox="0 0 1000 1000" width="1000" height="1000">
	<title>image</title>
	<style>
		.s0 { fill: none;stroke: #ffffff } 
	</style>
	<g>
		<path fill-rule="evenodd" class="s0" d="m100 150c-27.7 0-50-22.3-50-50 0-27.7 22.3-50 50-50 27.7 0 50 22.3 50 50 0 27.7-22.3 50-50 50z"/>
		<path fill-rule="evenodd" class="s0" d="m300 230c-16.6 0-30-13.4-30-30 0-16.6 13.4-30 30-30 16.6 0 30 13.4 30 30 0 16.6-13.4 30-30 30z"/>
		<path fill-rule="evenodd" class="s0" d="m500 140c-22.1 0-40-17.9-40-40 0-22.1 17.9-40 40-40 22.1 0 40 17.9 40 40 0 22.1-17.9 40-40 40z"/>
		<path fill-rule="evenodd" class="s0" d="m700 140c-33.2 0-60-26.8-60-60 0-33.2 26.8-60 60-60 33.2 0 60 26.8 60 60 0 33.2-26.8 60-60 60z"/>
		<path fill-rule="evenodd" class="s0" d="m900 175c-13.8 0-25-11.2-25-25 0-13.8 11.2-25 25-25 13.8 0 25 11.2 25 25 0 13.8-11.2 25-25 25z"/>
		<path fill-rule="evenodd" class="s0" d="m150 420c-38.7 0-70-31.3-70-70 0-38.7 31.3-70 70-70 38.7 0 70 31.3 70 70 0 38.7-31.3 70-70 70z"/>
		<path fill-rule="evenodd" class="s0" d="m400 400c-27.6 0-50-22.4-50-50 0-27.6 22.4-50 50-50 27.6 0 50 22.4 50 50 0 27.6-22.4 50-50 50z"/>
		<path fill-rule="evenodd" class="s0" d="m650 380c-44.2 0-80-35.8-80-80 0-44.2 35.8-80 80-80 44.2 0 80 35.8 80 80 0 44.2-35.8 80-80 80z"/>
		<path fill-rule="evenodd" class="s0" d="m850 380c-16.6 0-30-13.4-30-30 0-16.6 13.4-30 30-30 16.6 0 30 13.4 30 30 0 16.6-13.4 30-30 30z"/>
		<path fill-rule="evenodd" class="s0" d="m200 660c-33.2 0-60-26.8-60-60 0-33.2 26.8-60 60-60 33.2 0 60 26.8 60 60 0 33.2-26.8 60-60 60z"/>
		<path fill-rule="evenodd" class="s0" d="m350 590c-22.1 0-40-17.9-40-40 0-22.1 17.9-40 40-40 22.1 0 40 17.9 40 40 0 22.1-17.9 40-40 40z"/>
		<path fill-rule="evenodd" class="s0" d="m550 740c-49.8 0-90-40.2-90-90 0-49.8 40.2-90 90-90 49.8 0 90 40.2 90 90 0 49.8-40.2 90-90 90z"/>
		<path fill-rule="evenodd" class="s0" d="m750 655c-30.4 0-55-24.6-55-55 0-30.4 24.6-55 55-55 30.4 0 55 24.6 55 55 0 30.4-24.6 55-55 55z"/>
		<path fill-rule="evenodd" class="s0" d="m900 735c-19.4 0-35-15.6-35-35 0-19.4 15.6-35 35-35 19.4 0 35 15.6 35 35 0 19.4-15.6 35-35 35z"/>
		<path fill-rule="evenodd" class="s0" d="m100 845c-24.9 0-45-20.1-45-45 0-24.9 20.1-45 45-45 24.9 0 45 20.1 45 45 0 24.9-20.1 45-45 45z"/>
		<path fill-rule="evenodd" class="s0" d="m300 775c-13.8 0-25-11.2-25-25 0-13.8 11.2-25 25-25 13.8 0 25 11.2 25 25 0 13.8-11.2 25-25 25z"/>
		<path fill-rule="evenodd" class="s0" d="m500 915c-35.9 0-65-29.1-65-65 0-35.9 29.1-65 65-65 35.9 0 65 29.1 65 65 0 35.9-29.1 65-65 65z"/>
		<path fill-rule="evenodd" class="s0" d="m700 950c-27.6 0-50-22.4-50-50 0-27.6 22.4-50 50-50 27.6 0 50 22.4 50 50 0 27.6-22.4 50-50 50z"/>
		<path fill-rule="evenodd" class="s0" d="m850 830c-16.6 0-30-13.4-30-30 0-16.6 13.4-30 30-30 16.6 0 30 13.4 30 30 0 16.6-13.4 30-30 30z"/>
		<path fill-rule="evenodd" class="s0" d="m950 990c-22.1 0-40-17.9-40-40 0-22.1 17.9-40 40-40 22.1 0 40 17.9 40 40 0 22.1-17.9 40-40 40z"/>
	</g>
</svg>