<svg id="Layer_1" enable-background="new 0 0 491.52 491.52" viewBox="0 0 491.52 491.52" xmlns="http://www.w3.org/2000/svg"><g id="Layer_x0020_1"><g id="_300257064" clip-rule="evenodd" fill="#ffa726" fill-rule="evenodd"><path id="_300257880" d="m272.56 281.66c-1.58 0-3.12-.78-4.04-2.2-3.08-4.8-4.64-10.14-4.64-15.88v-34.68c0-2.65 2.14-4.8 4.8-4.8 2.65 0 4.8 2.15 4.8 4.8v34.68c0 3.87 1.05 7.47 3.12 10.69 1.43 2.23.78 5.2-1.45 6.63-.8.51-1.7.76-2.59.76zm79.19 183.96h-306.41c-10.71 0-19.43-8.72-19.43-19.44v-64.64c0-21.75 11.59-40.64 32.64-53.19l77.14-45.99c5.38-3.21 11.8-9.07 11.8-18.77v-34.59c0-2.65 2.15-4.8 4.8-4.8s4.8 2.15 4.8 4.8v34.59c0 11.09-5.86 20.69-16.49 27.02l-77.14 45.99c-18.02 10.75-27.95 26.71-27.95 44.95v64.64c0 5.42 4.41 9.84 9.83 9.84h306.41c2.65 0 4.8 2.15 4.8 4.8 0 2.64-2.15 4.79-4.8 4.79z"/><path id="_300258312" d="m210.98 261.54c-40.23 0-85.08-33-95.66-107.35-.37-2.63 1.45-5.06 4.08-5.43 2.62-.37 5.05 1.45 5.42 4.08 9.88 69.37 51.01 99.79 87.32 99.09 19.17-.35 37.52-9.15 51.67-24.78 16.03-17.7 26.22-43.36 29.47-74.2.28-2.64 2.65-4.55 5.27-4.27 2.64.28 4.55 2.64 4.28 5.28-3.47 32.88-14.5 60.41-31.9 79.63-15.95 17.62-36.77 27.54-58.61 27.94-.44.01-.89.01-1.34.01z"/><path id="_300258048" d="m206.16 35.55c-13.59 0-26.42 3.36-36.7 10.26-.41.27-.86.49-1.33.62-19.99 5.8-32.31 16.31-38.78 33.07-5.99 15.54-7.53 36.93-4.9 68.96 20.12-2.25 26.98-18.45 34.84-37.02 2.45-5.79 4.99-11.78 8.01-17.48.66-1.25 1.85-2.15 3.23-2.44 1.39-.3 2.84.03 3.96.9 3.79 2.95 7.54 5.96 11.17 8.87 27.76 22.27 54.02 43.34 108.79 47.14 13.71-53.41-17.96-83.51-32.48-94.12-16.9-12.36-37.07-18.76-55.81-18.76zm-86.09 122.77c-2.48 0-4.55-1.89-4.78-4.36-5.6-61.16.74-102.02 49.45-116.53 13.9-9.09 31.31-12.91 50.43-11.07 18.47 1.79 37.1 8.96 52.47 20.19 15.79 11.54 27.54 26.81 33.96 44.16 7.32 19.74 7.67 41.3 1.06 64.08-.62 2.14-2.63 3.57-4.86 3.46-60.5-3.22-88.5-25.69-118.15-49.47-2.11-1.7-4.27-3.43-6.44-5.15-1.8 3.8-3.46 7.72-5.08 11.56-8.91 21.05-18.12 42.81-48.01 43.14-.01-.01-.03-.01-.05-.01z"/><path id="_300257808" d="m163.65 373.56c-1.4 0-2.79-.61-3.74-1.79l-53.07-65.85c-1.67-2.06-1.34-5.09.72-6.75 2.07-1.66 5.09-1.34 6.75.73l50.13 62.2 38.36-29.45-59.4-49.47c-2.04-1.7-2.32-4.72-.62-6.76s4.72-2.31 6.76-.62l64.01 53.31c1.12.93 1.76 2.33 1.73 3.78-.03 1.46-.72 2.82-1.88 3.71l-46.83 35.95c-.87.69-1.9 1.01-2.92 1.01z"/><path id="_300258000" d="m242.9 362.49c-1.02 0-2.05-.32-2.92-.99l-32.42-24.89c-1.16-.89-1.85-2.25-1.88-3.71s.61-2.85 1.73-3.78l51.51-42.9c2.04-1.7 5.06-1.42 6.76.62s1.42 5.06-.62 6.76l-46.9 39.06 27.66 21.23c2.11 1.62 2.5 4.63.89 6.73-.95 1.23-2.37 1.87-3.81 1.87z"/><path id="_300257544" d="m110.2 465.62c-2.65 0-4.8-2.15-4.8-4.8v-53.56c0-2.65 2.15-4.8 4.8-4.8s4.8 2.15 4.8 4.8v53.56c0 2.65-2.15 4.8-4.8 4.8z"/><path id="_300257424" d="m130.06 197.12h-24.83c-10.23 0-18.56-8.32-18.56-18.55v-25.07c0-10.23 8.33-18.55 18.56-18.55h13.79c2.65 0 4.8 2.15 4.8 4.8s-2.15 4.8-4.8 4.8h-13.79c-4.94 0-8.96 4.02-8.96 8.95v25.06c0 4.94 4.02 8.95 8.96 8.95h24.83c2.65 0 4.8 2.15 4.8 4.8 0 2.66-2.15 4.81-4.8 4.81z"/><path id="_300257400" d="m315.74 197.12h-26.26c-2.65 0-4.8-2.15-4.8-4.8s2.15-4.8 4.8-4.8h26.26c4.93 0 8.95-4.01 8.95-8.95v-25.07c0-4.93-4.02-8.95-8.95-8.95h-14.58c-2.65 0-4.8-2.15-4.8-4.8s2.15-4.8 4.8-4.8h14.58c10.23 0 18.55 8.32 18.55 18.55v25.06c0 10.23-8.32 18.56-18.55 18.56z"/><path id="_300257352" d="m192.24 225.17h-69.74c-8.43 0-15.3-6.86-15.3-15.3v-17.55c0-2.65 2.15-4.8 4.8-4.8s4.8 2.15 4.8 4.8v17.55c0 3.14 2.56 5.7 5.7 5.7h69.74c2.65 0 4.8 2.15 4.8 4.8s-2.15 4.8-4.8 4.8z"/><path id="_300257328" d="m203.2 215.04c-3.42 0-6.2 2.78-6.2 6.21 0 3.42 2.78 6.2 6.2 6.2h14.56c3.42 0 6.2-2.78 6.2-6.2s-2.78-6.21-6.2-6.21zm14.56 22.01h-14.56c-8.71 0-15.8-7.09-15.8-15.8 0-8.72 7.09-15.81 15.8-15.81h14.56c8.71 0 15.8 7.09 15.8 15.8 0 8.72-7.09 15.81-15.8 15.81z"/><path id="_300257232" d="m351.77 247.54c-57.47 0-104.23 46.76-104.23 104.24 0 57.47 46.76 104.24 104.23 104.24 57.48 0 104.24-46.76 104.24-104.24s-46.76-104.24-104.24-104.24zm0 218.08c-62.77 0-113.83-51.07-113.83-113.84s51.06-113.84 113.83-113.84 113.84 51.07 113.84 113.84-51.07 113.84-113.84 113.84z"/><path id="_300257136" d="m302.39 287.71c-.51 0-1.01.19-1.39.56l-6.61 6.61c-.49.49-.57 1.08-.57 1.39s.08.89.57 1.38l24.88 24.88c.75.75 2.02.75 2.77 0l6.61-6.62c.75-.75.75-2.02 0-2.77l-24.88-24.88c-.37-.37-.88-.55-1.38-.55zm18.26 44.99c-2.96 0-5.92-1.13-8.17-3.38l-24.88-24.88c-2.18-2.18-3.38-5.08-3.38-8.17s1.2-5.99 3.38-8.17l6.62-6.62c4.5-4.51 11.84-4.5 16.34 0l24.88 24.88c4.51 4.51 4.51 11.84 0 16.35l-6.61 6.62c-2.26 2.25-5.22 3.37-8.18 3.37z"/><path id="_300257112" d="m405.86 409.12c.78.78 2.09.78 2.87 0l6.51-6.51c.78-.78.78-2.1 0-2.88l-24.77-24.77c-.78-.78-2.1-.78-2.88 0l-6.51 6.51c-.77.78-.77 2.1 0 2.88zm1.44 10.19c-2.98 0-5.96-1.13-8.23-3.4l-24.77-24.77c-4.54-4.54-4.54-11.92 0-16.45l6.51-6.51c4.53-4.54 11.91-4.53 16.45 0l24.77 24.77c4.54 4.54 4.54 11.92 0 16.45l-6.51 6.51c-2.27 2.27-5.24 3.41-8.22 3.4z"/><path id="_300257760" d="m368.62 391.82c-12.23 0-21.7-9.79-30.25-18.63-1.32-1.36-2.63-2.72-3.95-4.04s-2.67-2.63-4.03-3.95c-10.97-10.6-23.39-22.62-16.8-39.55.96-2.47 3.74-3.69 6.21-2.73s3.69 3.74 2.73 6.21c-3.99 10.25 2.83 17.86 14.53 29.17 1.4 1.35 2.79 2.7 4.15 4.06s2.71 2.76 4.06 4.16c11.32 11.7 18.93 18.52 29.19 14.52 2.46-.96 5.25.26 6.21 2.73.97 2.47-.25 5.25-2.72 6.22-3.29 1.26-6.39 1.83-9.33 1.83zm8.58 33.69c-24.01 0-44.32-20.36-61.54-37.62-23.53-23.48-52.83-52.72-28.38-89.25 1.47-2.2 4.45-2.79 6.66-1.32 2.2 1.47 2.79 4.46 1.31 6.66-18.62 27.82-.47 49.51 27.2 77.12 27.61 27.68 49.31 45.83 77.13 27.2 2.2-1.47 5.18-.88 6.66 1.32 1.47 2.2.88 5.19-1.32 6.66-9.75 6.53-18.98 9.23-27.72 9.23z"/></g></g></svg>