<svg clip-rule="evenodd" fill-rule="evenodd" stroke-linejoin="round" stroke-miterlimit="2" viewBox="0 0 32 32" xmlns="http://www.w3.org/2000/svg"><g transform="translate(0 -96)"><path d="m19.979 98.235s.239 2.766.239 2.766c1.156.444 2.236 1.067 3.198 1.847l2.515-1.176c.397-.186.869-.091 1.163.233 1.451 1.594 2.541 3.481 3.196 5.535.133.417-.021.872-.38 1.123 0 0-2.276 1.591-2.276 1.59.195 1.224.195 2.47 0 3.693l2.276 1.591c.359.251.513.706.38 1.123-.655 2.054-1.745 3.941-3.196 5.535-.294.324-.766.419-1.163.233 0 0-2.515-1.176-2.515-1.176-.962.78-2.041 1.403-3.198 1.847l-.239 2.766c-.038.436-.356.797-.784.891-2.105.459-4.285.459-6.39 0-.428-.094-.746-.455-.784-.891 0 0-.239-2.766-.239-2.766-1.156-.444-2.236-1.067-3.198-1.847l-2.515 1.176c-.397.186-.869.091-1.163-.233-1.451-1.594-2.541-3.481-3.196-5.535-.133-.417.021-.872.38-1.123 0 0 2.276-1.591 2.276-1.59-.195-1.224-.195-2.47 0-3.693l-2.276-1.591c-.359-.251-.513-.706-.38-1.123.655-2.054 1.745-3.941 3.196-5.535.294-.324.766-.419 1.163-.233 0 0 2.515 1.176 2.515 1.176.962-.78 2.041-1.403 3.198-1.847l.239-2.766c.038-.436.356-.797.784-.891 2.105-.459 4.285-.459 6.39 0 .428.094.746.455.784.891zm-1.928.928c-1.358-.217-2.743-.217-4.103 0l-.229 2.654c-.035.402-.308.743-.692.866-1.339.427-2.57 1.138-3.609 2.083-.299.272-.731.338-1.097.167 0 0-2.412-1.128-2.413-1.128-.867 1.068-1.56 2.267-2.051 3.553l2.183 1.526c.331.231.49.638.404 1.033-.299 1.372-.299 2.794 0 4.166.086.395-.073.802-.404 1.033 0 0-2.183 1.526-2.183 1.526.491 1.285 1.184 2.485 2.052 3.553l2.412-1.128c.366-.171.798-.105 1.097.167 1.039.945 2.27 1.656 3.609 2.083.384.123.657.464.692.866 0 0 .229 2.654.23 2.654 1.359.217 2.743.217 4.103 0l.229-2.654c.035-.402.308-.743.692-.866 1.339-.427 2.57-1.138 3.609-2.083.299-.272.731-.338 1.097-.167 0 0 2.412 1.128 2.413 1.128.867-1.068 1.56-2.267 2.051-3.553l-2.183-1.526c-.331-.231-.49-.638-.404-1.033.299-1.372.299-2.794 0-4.166-.086-.395.073-.802.404-1.033 0 0 2.183-1.526 2.183-1.526-.491-1.285-1.184-2.485-2.052-3.553l-2.412 1.128c-.366.171-.798.105-1.097-.167-1.039-.945-2.27-1.656-3.609-2.083-.384-.123-.657-.464-.692-.866z" fill="#2b2d42"/><path d="m8 112c0-4.415 3.585-8 8-8s8 3.585 8 8-3.585 8-8 8-8-3.585-8-8zm4.88-5.125c-1.455.888-2.504 2.379-2.797 4.125h1.947c.094-1.575.405-2.998.85-4.125zm9.037 4.125c-.293-1.746-1.342-3.237-2.797-4.125.445 1.127.756 2.55.85 4.125zm-2.797 6.125c1.455-.888 2.504-2.379 2.797-4.125h-1.947c-.094 1.575-.405 2.998-.85 4.125zm-9.037-4.125c.293 1.746 1.342 3.237 2.797 4.125-.445-1.127-.756-2.55-.85-4.125zm7.885-2c-.109-1.695-.492-3.172-1.06-4.144-.176-.3-.363-.546-.574-.709-.107-.084-.215-.147-.334-.147s-.227.063-.334.147c-.211.163-.398.409-.574.709-.568.972-.951 2.449-1.06 4.144zm-3.936 2c.109 1.695.492 3.172 1.06 4.144.176.3.363.546.574.709.107.084.215.147.334.147s.227-.063.334-.147c.211-.163.398-.409.574-.709.568-.972.951-2.449 1.06-4.144z" fill="#ee243a"/></g></svg>